<svg xmlns="http://www.w3.org/2000/svg" width="15" height="12" fill="none"><path fill="#fff" d="M14.29 2.159a6.172 6.172 0 0 1-1.604.45 2.717 2.717 0 0 0 1.21-1.52 6.102 6.102 0 0 1-1.773.676 2.806 2.806 0 0 0-2.027-.873 2.763 2.763 0 0 0-2.76 2.759c0 .225.029.422.085.62a7.888 7.888 0 0 1-5.715-2.9 2.881 2.881 0 0 0-.366 1.38c0 .956.479 1.8 1.24 2.308a3.258 3.258 0 0 1-1.268-.338v.028a2.78 2.78 0 0 0 2.224 2.73 3.069 3.069 0 0 1-.732.085 3.45 3.45 0 0 1-.535-.056c.366 1.098 1.38 1.914 2.59 1.914a5.632 5.632 0 0 1-3.434 1.183c-.225 0-.45 0-.648-.029a7.834 7.834 0 0 0 4.251 1.24c5.096 0 7.883-4.224 7.883-7.883v-.366a5.056 5.056 0 0 0 1.38-1.408Z"/></svg>