<svg xmlns="http://www.w3.org/2000/svg" width="18" height="17" fill="none"><path fill="#fff" d="M9.133 2.09c2.187 0 2.446.01 3.31.049.52.006 1.034.101 1.522.282a2.712 2.712 0 0 1 1.555 1.555c.18.487.275 1.001.282 1.521.039.864.047 1.123.047 3.31 0 2.188-.008 2.447-.047 3.31a4.543 4.543 0 0 1-.282 1.522 2.713 2.713 0 0 1-1.555 1.555 4.543 4.543 0 0 1-1.522.282c-.864.04-1.123.048-3.31.048-2.188 0-2.447-.008-3.31-.048a4.543 4.543 0 0 1-1.522-.282 2.713 2.713 0 0 1-1.555-1.555 4.545 4.545 0 0 1-.282-1.521c-.04-.864-.048-1.123-.048-3.31 0-2.188.008-2.447.048-3.311.006-.52.102-1.034.282-1.521A2.713 2.713 0 0 1 4.3 2.42a4.545 4.545 0 0 1 1.521-.282c.864-.04 1.123-.048 3.31-.048Zm0-1.475c-2.224 0-2.504.01-3.378.049a6.015 6.015 0 0 0-1.99.38 4.013 4.013 0 0 0-1.45.946c-.417.409-.74.904-.945 1.45a6.015 6.015 0 0 0-.381 1.99C.949 6.303.94 6.583.94 8.807c0 2.224.01 2.504.05 3.378a6.02 6.02 0 0 0 .38 1.99c.206.546.529 1.041.946 1.45.409.417.904.74 1.45.945.637.239 1.31.367 1.99.381.874.039 1.153.05 3.378.05 2.224 0 2.503-.01 3.377-.05a6.014 6.014 0 0 0 1.99-.38 4.194 4.194 0 0 0 2.395-2.398 6.01 6.01 0 0 0 .38-1.99c.04-.872.05-1.152.05-3.376s-.01-2.504-.05-3.378a6.014 6.014 0 0 0-.38-1.99 4.014 4.014 0 0 0-.946-1.45 4.013 4.013 0 0 0-1.45-.945 6.015 6.015 0 0 0-1.99-.38c-.873-.04-1.154-.05-3.377-.05Z"/><path fill="#fff" d="M9.133 4.6a4.207 4.207 0 1 0 0 8.413 4.207 4.207 0 0 0 0-8.414Zm0 6.937a2.73 2.73 0 1 1 0-5.461 2.73 2.73 0 0 1 0 5.46Zm4.372-6.12a.983.983 0 1 0 0-1.966.983.983 0 0 0 0 1.966Z"/></svg>