<svg xmlns="http://www.w3.org/2000/svg" width="16" height="16" fill="none"><path fill="#fff" fill-rule="evenodd" d="M8.164.615A7.818 7.818 0 0 0 .327 8.45c0 3.461 2.253 6.4 5.355 7.445.392.065.522-.164.522-.392v-1.339c-2.187.49-2.644-1.045-2.644-1.045-.36-.914-.882-1.142-.882-1.142-.718-.49.065-.49.065-.49.784.065 1.208.816 1.208.816.686 1.208 1.829.849 2.286.653.065-.522.261-.849.49-1.045-1.73-.196-3.56-.881-3.56-3.885 0-.85.295-1.568.817-2.09-.065-.196-.359-.98.065-2.09 0 0 .653-.196 2.155.817a7.868 7.868 0 0 1 1.96-.262c.653 0 1.338.098 1.959.262 1.502-1.013 2.155-.817 2.155-.817.424 1.078.163 1.861.065 2.09.49.555.816 1.24.816 2.09 0 3.004-1.828 3.657-3.591 3.853.293.228.522.718.522 1.436v2.155c0 .196.13.457.555.392A7.798 7.798 0 0 0 16 8.451 7.818 7.818 0 0 0 8.164.615Z" clip-rule="evenodd"/></svg>